<svg id="svg" version="1.1" xmlns="http://www.w3.org/2000/svg" xmlns:xlink="http://www.w3.org/1999/xlink" width="400" height="400" viewBox="0, 0, 400,400"><g id="svgg"><path id="path0" d="M185.833 0.214 C 62.358 7.852,-22.118 122.875,5.199 246.167 C 28.266 350.280,127.736 415.182,236.344 396.984 C 289.830 388.023,337.459 356.898,367.158 311.500 C 370.631 306.192,371.574 304.629,375.411 297.833 C 396.625 260.258,404.944 209.713,397.150 165.749 C 392.794 141.182,385.665 120.329,375.411 102.167 C 371.574 95.371,370.631 93.808,367.158 88.500 C 337.459 43.103,289.827 11.976,236.344 3.016 C 221.013 0.448,200.473 -0.692,185.833 0.214 M217.000 2.176 C 292.388 8.759,356.898 56.705,384.212 126.454 C 403.654 176.101,403.383 225.914,383.402 275.500 C 353.413 349.922,281.196 398.379,200.167 398.450 C 101.983 398.537,19.677 328.159,3.836 230.573 C -7.125 163.047,19.793 91.454,72.667 47.509 C 106.929 19.033,145.314 4.304,192.500 1.526 C 196.534 1.288,211.330 1.681,217.000 2.176 M215.500 20.123 C 275.881 30.996,308.337 96.111,280.611 150.753 C 265.724 180.092,233.964 199.990,202.002 200.001 C 149.965 200.020,109.898 239.293,109.844 290.333 C 109.788 342.860,150.913 382.206,204.500 380.895 C 312.929 378.244,394.553 281.581,379.148 174.071 C 367.181 90.559,297.122 24.999,214.000 19.529 L 211.167 19.342 215.500 20.123 M194.945 81.856 C 175.692 85.339,165.781 107.620,176.141 124.127 C 188.566 143.925,218.355 140.955,226.305 119.127 C 233.720 98.766,216.248 78.001,194.945 81.856 M207.000 263.180 C 226.330 268.246,234.522 291.341,222.664 307.338 C 208.616 326.287,178.511 320.443,172.700 297.638 C 167.425 276.937,186.474 257.800,207.000 263.180 " stroke="none" fill="#040404" fill-rule="evenodd"></path><path id="path1" d="M197.083 1.582 C 198.688 1.643,201.313 1.643,202.917 1.582 C 204.521 1.520,203.208 1.470,200.000 1.470 C 196.792 1.470,195.479 1.520,197.083 1.582 M187.921 1.902 C 188.335 1.982,188.935 1.979,189.254 1.896 C 189.573 1.812,189.233 1.747,188.500 1.751 C 187.767 1.754,187.506 1.823,187.921 1.902 M210.921 1.902 C 211.335 1.982,211.935 1.979,212.254 1.896 C 212.573 1.812,212.233 1.747,211.500 1.751 C 210.767 1.754,210.506 1.823,210.921 1.902 M186.000 19.372 C 48.002 30.368,-27.377 186.062,49.649 301.000 C 80.097 346.435,133.804 377.859,185.500 380.488 L 188.833 380.657 185.833 380.167 C 120.269 369.456,87.889 294.639,125.025 239.667 C 141.644 215.067,167.310 201.241,198.667 199.997 C 216.900 199.273,227.894 196.705,240.833 190.148 C 299.395 160.470,307.724 80.008,256.500 38.807 C 237.527 23.547,214.223 17.123,186.000 19.372 M206.667 82.011 C 224.842 86.328,233.922 107.712,224.346 123.646 C 209.430 148.464,171.651 138.035,171.891 109.167 C 172.042 91.005,188.949 77.803,206.667 82.011 M1.757 187.333 C 1.757 188.158,1.822 188.496,1.902 188.083 C 1.981 187.671,1.981 186.996,1.902 186.583 C 1.822 186.171,1.757 186.508,1.757 187.333 M398.084 187.500 C 398.088 188.233,398.156 188.494,398.236 188.079 C 398.315 187.665,398.312 187.065,398.229 186.746 C 398.146 186.427,398.080 186.767,398.084 187.500 M1.477 200.000 C 1.477 204.308,1.524 206.071,1.582 203.917 C 1.640 201.762,1.640 198.237,1.582 196.083 C 1.524 193.929,1.477 195.692,1.477 200.000 M398.477 200.000 C 398.477 204.308,398.524 206.071,398.582 203.917 C 398.640 201.762,398.640 198.237,398.582 196.083 C 398.524 193.929,398.477 195.692,398.477 200.000 M1.751 212.500 C 1.754 213.233,1.823 213.494,1.902 213.079 C 1.982 212.665,1.979 212.065,1.896 211.746 C 1.812 211.427,1.747 211.767,1.751 212.500 M398.084 212.500 C 398.088 213.233,398.156 213.494,398.236 213.079 C 398.315 212.665,398.312 212.065,398.229 211.746 C 398.146 211.427,398.080 211.767,398.084 212.500 M2.077 217.000 C 2.077 217.642,2.146 217.904,2.230 217.583 C 2.314 217.262,2.314 216.737,2.230 216.417 C 2.146 216.096,2.077 216.358,2.077 217.000 M193.167 263.365 C 172.707 268.350,165.050 294.300,179.515 309.634 C 196.997 328.166,228.000 315.883,228.000 290.425 C 228.000 272.397,210.832 259.061,193.167 263.365 M189.750 380.896 C 190.071 380.980,190.596 380.980,190.917 380.896 C 191.237 380.813,190.975 380.744,190.333 380.744 C 189.692 380.744,189.429 380.813,189.750 380.896 M187.917 398.235 C 188.329 398.315,189.004 398.315,189.417 398.235 C 189.829 398.156,189.492 398.091,188.667 398.091 C 187.842 398.091,187.504 398.156,187.917 398.235 M210.921 398.236 C 211.335 398.315,211.935 398.312,212.254 398.229 C 212.573 398.146,212.233 398.080,211.500 398.084 C 210.767 398.088,210.506 398.156,210.921 398.236 M197.083 398.582 C 198.688 398.643,201.313 398.643,202.917 398.582 C 204.521 398.520,203.208 398.470,200.000 398.470 C 196.792 398.470,195.479 398.520,197.083 398.582 " stroke="none" fill="#fbfbfb" fill-rule="evenodd"></path><path id="path2" d="M198.250 2.912 C 199.213 2.980,200.787 2.980,201.750 2.912 C 202.713 2.845,201.925 2.790,200.000 2.790 C 198.075 2.790,197.287 2.845,198.250 2.912 M189.917 3.247 C 191.063 3.312,192.938 3.312,194.083 3.247 C 195.229 3.182,194.292 3.128,192.000 3.128 C 189.708 3.128,188.771 3.182,189.917 3.247 M205.917 3.247 C 207.063 3.312,208.938 3.312,210.083 3.247 C 211.229 3.182,210.292 3.128,208.000 3.128 C 205.708 3.128,204.771 3.182,205.917 3.247 M181.833 3.673 C 180.917 3.800,181.817 3.831,183.833 3.744 C 185.850 3.656,187.563 3.527,187.639 3.459 C 187.856 3.263,183.685 3.416,181.833 3.673 M213.243 3.574 C 213.834 3.648,214.884 3.649,215.576 3.577 C 216.267 3.504,215.783 3.444,214.500 3.443 C 213.217 3.441,212.651 3.500,213.243 3.574 M189.833 3.878 C 83.702 10.854,3.859 95.054,3.859 200.000 C 3.859 324.058,116.937 416.751,238.667 392.478 C 344.722 371.330,413.762 267.581,392.483 161.333 C 376.207 80.067,310.176 17.520,228.167 5.686 C 217.639 4.167,198.891 3.282,189.833 3.878 M217.755 3.906 C 218.261 3.982,219.011 3.980,219.421 3.901 C 219.831 3.822,219.417 3.760,218.500 3.762 C 217.583 3.765,217.248 3.829,217.755 3.906 M177.583 4.235 C 177.996 4.315,178.671 4.315,179.083 4.235 C 179.496 4.156,179.158 4.091,178.333 4.091 C 177.508 4.091,177.171 4.156,177.583 4.235 M216.667 4.865 C 328.847 14.375,409.905 116.580,393.822 228.239 C 381.474 313.971,313.105 382.028,227.333 393.968 C 109.362 410.391,4.225 318.985,4.225 200.000 C 4.225 85.252,102.296 -4.830,216.667 4.865 M220.917 4.235 C 221.329 4.315,222.004 4.315,222.417 4.235 C 222.829 4.156,222.492 4.091,221.667 4.091 C 220.842 4.091,220.504 4.156,220.917 4.235 M173.833 4.497 C 173.650 4.558,171.700 4.870,169.500 5.190 C 167.300 5.509,165.650 5.820,165.833 5.880 C 166.017 5.940,168.567 5.629,171.500 5.189 C 174.433 4.749,176.233 4.389,175.500 4.388 C 174.767 4.387,174.017 4.436,173.833 4.497 M228.167 5.149 C 230.917 5.565,233.917 6.022,234.833 6.163 C 235.750 6.303,236.425 6.337,236.333 6.237 C 236.099 5.982,225.337 4.327,224.144 4.362 C 223.606 4.378,225.417 4.732,228.167 5.149 M183.895 5.169 C 42.568 17.538,-39.456 170.623,28.893 294.459 C 100.839 424.814,287.378 429.539,366.066 303.000 C 446.285 173.998,353.931 6.149,202.000 4.820 C 192.970 4.741,187.604 4.844,183.895 5.169 M210.333 5.283 C 210.333 5.439,211.458 5.494,212.833 5.406 C 214.326 5.310,215.333 5.375,215.333 5.567 C 215.333 5.753,216.107 5.824,217.167 5.736 C 218.242 5.647,219.000 5.719,219.000 5.910 C 219.000 6.100,219.695 6.169,220.667 6.075 C 221.583 5.987,222.335 6.047,222.336 6.208 C 222.337 6.368,223.275 6.519,224.419 6.543 C 226.923 6.594,237.126 8.274,237.266 8.658 C 237.321 8.807,237.621 8.863,237.933 8.782 C 239.339 8.416,255.568 12.710,263.973 15.671 C 273.872 19.159,288.863 25.746,288.444 26.424 C 288.321 26.622,288.392 26.670,288.609 26.535 C 289.592 25.928,313.646 40.557,313.105 41.433 C 312.991 41.618,313.054 41.673,313.246 41.554 C 313.664 41.296,321.540 47.246,321.408 47.720 C 321.358 47.901,321.451 47.967,321.615 47.865 C 323.139 46.924,353.050 76.904,352.108 78.429 C 351.990 78.619,352.060 78.669,352.265 78.542 C 352.631 78.316,353.547 79.584,353.396 80.108 C 353.352 80.259,353.449 80.301,353.609 80.202 C 353.941 79.997,356.062 82.797,355.822 83.122 C 355.737 83.238,355.764 83.261,355.883 83.173 C 356.226 82.918,358.671 86.387,358.437 86.797 C 358.321 87.000,358.351 87.053,358.504 86.915 C 358.864 86.588,361.048 89.652,360.773 90.098 C 360.653 90.291,360.729 90.334,360.948 90.198 C 361.312 89.974,361.495 90.422,361.345 91.167 C 361.308 91.350,361.395 91.382,361.539 91.239 C 361.873 90.905,365.368 96.342,365.098 96.777 C 364.988 96.956,365.045 97.012,365.226 96.900 C 365.576 96.683,370.444 104.735,370.444 105.530 C 370.444 105.788,370.522 105.923,370.617 105.828 C 370.890 105.554,373.329 110.405,373.102 110.772 C 372.977 110.973,373.070 110.996,373.338 110.830 C 373.662 110.630,373.721 110.711,373.560 111.129 C 373.440 111.444,373.461 111.627,373.608 111.536 C 373.993 111.299,376.059 115.630,375.787 116.104 C 375.662 116.322,375.679 116.392,375.825 116.261 C 376.460 115.687,384.677 135.508,384.155 136.353 C 384.048 136.525,384.136 136.667,384.349 136.667 C 384.564 136.667,384.649 136.899,384.539 137.184 C 384.411 137.519,384.475 137.618,384.723 137.465 C 384.983 137.305,385.045 137.459,384.917 137.948 C 384.813 138.344,384.849 138.593,384.996 138.503 C 385.327 138.298,385.760 139.913,385.491 140.349 C 385.382 140.524,385.469 140.667,385.683 140.667 C 385.896 140.667,385.985 140.892,385.879 141.167 C 385.774 141.442,385.809 141.667,385.958 141.667 C 386.353 141.667,387.071 144.282,386.797 144.725 C 386.669 144.933,386.708 145.014,386.884 144.905 C 387.254 144.676,388.456 148.866,388.158 149.347 C 388.050 149.523,388.137 149.667,388.353 149.667 C 388.580 149.667,388.671 149.946,388.570 150.334 C 388.474 150.701,388.509 150.931,388.647 150.845 C 388.998 150.628,389.767 154.235,389.471 154.713 C 389.311 154.972,389.376 155.013,389.663 154.835 C 389.990 154.634,390.055 154.785,389.928 155.450 C 389.835 155.936,389.869 156.333,390.003 156.333 C 390.361 156.333,391.076 160.274,390.799 160.722 C 390.645 160.971,390.713 161.011,390.993 160.837 C 391.319 160.636,391.386 160.823,391.270 161.611 C 391.186 162.183,391.229 162.692,391.366 162.742 C 391.761 162.888,393.408 173.322,393.180 174.232 C 393.032 174.822,393.086 174.986,393.371 174.810 C 393.664 174.629,393.720 174.927,393.582 175.949 C 393.476 176.741,393.543 177.423,393.738 177.544 C 393.938 177.668,393.996 178.356,393.879 179.211 C 393.746 180.181,393.804 180.667,394.052 180.667 C 394.308 180.667,394.357 181.242,394.210 182.500 C 394.058 183.789,394.109 184.333,394.379 184.333 C 394.655 184.333,394.705 185.033,394.557 186.786 C 394.443 188.135,394.456 189.345,394.586 189.475 C 394.900 189.789,394.904 210.353,394.590 210.547 C 394.455 210.631,394.439 211.817,394.555 213.183 C 394.696 214.862,394.648 215.667,394.406 215.667 C 394.171 215.667,394.113 216.298,394.237 217.500 C 394.366 218.744,394.307 219.333,394.053 219.333 C 393.804 219.333,393.746 219.818,393.879 220.789 C 393.996 221.644,393.938 222.332,393.738 222.456 C 393.543 222.577,393.476 223.259,393.582 224.051 C 393.720 225.073,393.664 225.371,393.371 225.190 C 393.086 225.014,393.032 225.178,393.180 225.768 C 393.408 226.678,391.761 237.112,391.366 237.258 C 391.229 237.308,391.186 237.817,391.270 238.389 C 391.386 239.177,391.319 239.364,390.993 239.163 C 390.713 238.989,390.645 239.029,390.799 239.278 C 391.076 239.726,390.361 243.667,390.003 243.667 C 389.869 243.667,389.835 244.064,389.928 244.550 C 390.055 245.215,389.990 245.366,389.663 245.165 C 389.372 244.984,389.311 245.028,389.478 245.298 C 389.769 245.768,389.059 249.000,388.665 249.000 C 388.517 249.000,388.474 249.300,388.570 249.667 C 388.671 250.054,388.580 250.333,388.353 250.333 C 388.137 250.333,388.050 250.477,388.158 250.653 C 388.456 251.134,387.254 255.324,386.884 255.095 C 386.708 254.986,386.669 255.067,386.797 255.275 C 387.071 255.718,386.353 258.333,385.958 258.333 C 385.809 258.333,385.774 258.558,385.879 258.833 C 385.985 259.108,385.896 259.333,385.683 259.333 C 385.469 259.333,385.382 259.476,385.491 259.651 C 385.773 260.108,385.319 261.697,384.968 261.480 C 384.807 261.380,384.764 261.531,384.873 261.816 C 384.982 262.101,384.910 262.333,384.713 262.333 C 384.516 262.333,384.441 262.558,384.546 262.833 C 384.652 263.108,384.563 263.333,384.349 263.333 C 384.136 263.333,384.048 263.475,384.155 263.647 C 384.677 264.492,376.460 284.313,375.825 283.739 C 375.679 283.608,375.662 283.678,375.787 283.896 C 376.059 284.370,373.993 288.701,373.608 288.464 C 373.461 288.373,373.440 288.556,373.560 288.871 C 373.721 289.289,373.662 289.370,373.338 289.170 C 373.070 289.004,372.977 289.027,373.102 289.228 C 373.329 289.595,370.890 294.446,370.617 294.172 C 370.522 294.077,370.444 294.212,370.444 294.470 C 370.444 295.265,365.576 303.317,365.226 303.100 C 365.045 302.988,364.988 303.044,365.098 303.223 C 365.368 303.658,361.873 309.095,361.539 308.761 C 361.395 308.618,361.308 308.650,361.345 308.833 C 361.495 309.578,361.312 310.026,360.948 309.802 C 360.728 309.665,360.653 309.709,360.774 309.904 C 361.118 310.461,352.874 321.595,352.255 321.408 C 352.087 321.358,352.028 321.442,352.122 321.594 C 352.580 322.335,336.644 339.898,335.921 339.451 C 335.723 339.329,335.659 339.385,335.778 339.577 C 336.155 340.188,322.242 352.522,321.614 352.134 C 321.450 352.033,321.358 352.095,321.408 352.271 C 321.860 353.849,290.070 374.367,288.590 373.453 C 288.391 373.329,288.325 373.384,288.444 373.576 C 288.895 374.306,272.204 381.523,262.167 384.937 C 253.750 387.800,238.895 391.620,237.804 391.202 C 237.569 391.111,237.329 391.167,237.272 391.326 C 237.127 391.722,226.982 393.405,224.419 393.457 C 223.275 393.481,222.337 393.632,222.336 393.792 C 222.335 393.953,221.583 394.013,220.667 393.925 C 219.695 393.831,219.000 393.900,219.000 394.090 C 219.000 394.281,218.242 394.353,217.167 394.264 C 216.107 394.176,215.333 394.247,215.333 394.433 C 215.333 394.625,214.326 394.690,212.833 394.594 C 211.458 394.506,210.333 394.561,210.333 394.717 C 210.333 394.873,205.758 395.000,200.167 395.000 C 194.575 395.000,190.000 394.873,190.000 394.717 C 190.000 394.561,188.875 394.506,187.500 394.594 C 185.893 394.697,185.000 394.631,185.000 394.409 C 185.000 394.188,184.275 394.129,183.000 394.245 C 181.778 394.355,181.000 394.297,181.000 394.095 C 181.000 393.899,180.321 393.830,179.333 393.925 C 178.417 394.013,177.667 393.949,177.667 393.784 C 177.667 393.618,177.067 393.540,176.333 393.610 C 175.600 393.679,174.999 393.608,174.997 393.452 C 174.995 393.295,174.058 393.138,172.914 393.104 C 167.691 392.946,150.772 389.088,140.000 385.599 C 130.575 382.546,119.425 378.046,119.923 377.495 C 120.057 377.348,119.994 377.325,119.783 377.446 C 118.133 378.389,84.696 358.968,85.560 357.569 C 85.676 357.383,85.616 357.326,85.427 357.442 C 85.019 357.694,78.459 352.728,78.592 352.268 C 78.642 352.093,78.549 352.033,78.385 352.135 C 76.895 353.056,46.944 323.105,47.865 321.615 C 47.967 321.451,47.890 321.358,47.696 321.408 C 47.205 321.536,41.315 313.640,41.568 313.194 C 41.681 312.996,41.653 312.942,41.506 313.075 C 41.149 313.398,38.976 310.316,39.237 309.858 C 39.349 309.661,39.311 309.617,39.154 309.761 C 38.794 310.088,34.620 303.679,34.899 303.228 C 35.011 303.046,34.955 302.988,34.774 303.100 C 34.424 303.317,29.556 295.265,29.556 294.470 C 29.556 294.212,29.480 294.075,29.388 294.168 C 29.106 294.449,26.319 288.960,26.552 288.583 C 26.672 288.389,26.625 288.320,26.447 288.430 C 26.034 288.685,23.912 284.413,24.211 283.928 C 24.335 283.728,24.292 283.653,24.116 283.761 C 23.562 284.104,15.988 266.026,15.877 264.095 C 15.853 263.676,15.705 263.334,15.548 263.334 C 15.391 263.333,15.351 263.101,15.461 262.816 C 15.589 262.481,15.525 262.382,15.277 262.535 C 15.017 262.695,14.955 262.541,15.083 262.052 C 15.187 261.656,15.151 261.407,15.004 261.497 C 14.651 261.716,14.249 260.072,14.541 259.600 C 14.689 259.361,14.616 259.326,14.332 259.501 C 14.007 259.702,13.943 259.588,14.083 259.052 C 14.186 258.657,14.157 258.333,14.017 258.333 C 13.622 258.333,12.254 253.398,12.527 252.956 C 12.669 252.727,12.627 252.652,12.425 252.776 C 12.050 253.008,11.549 251.127,11.854 250.632 C 11.956 250.468,11.863 250.333,11.647 250.333 C 11.420 250.333,11.329 250.054,11.430 249.666 C 11.526 249.299,11.491 249.069,11.353 249.155 C 11.002 249.372,10.233 245.765,10.529 245.287 C 10.689 245.028,10.624 244.987,10.337 245.165 C 10.010 245.366,9.945 245.215,10.072 244.550 C 10.165 244.064,10.131 243.667,9.997 243.667 C 9.639 243.667,8.924 239.726,9.201 239.278 C 9.355 239.029,9.287 238.989,9.007 239.163 C 8.681 239.364,8.614 239.175,8.731 238.381 C 8.815 237.805,8.782 237.333,8.657 237.333 C 8.328 237.333,6.892 228.761,7.121 228.166 C 7.226 227.891,7.151 227.667,6.953 227.667 C 6.739 227.667,6.649 227.196,6.730 226.500 C 6.805 225.858,6.727 225.333,6.556 225.333 C 6.385 225.333,6.326 224.733,6.424 224.000 C 6.525 223.249,6.454 222.575,6.262 222.456 C 6.062 222.332,6.004 221.644,6.121 220.789 C 6.254 219.819,6.196 219.333,5.948 219.333 C 5.692 219.333,5.643 218.758,5.790 217.500 C 5.942 216.214,5.891 215.667,5.622 215.667 C 5.349 215.667,5.299 215.008,5.450 213.386 C 5.566 212.132,5.552 210.996,5.418 210.862 C 5.105 210.550,5.081 189.322,5.393 189.130 C 5.522 189.050,5.539 187.939,5.432 186.659 C 5.294 185.012,5.349 184.333,5.621 184.333 C 5.891 184.333,5.942 183.787,5.790 182.500 C 5.645 181.267,5.694 180.667,5.938 180.667 C 6.179 180.667,6.235 180.102,6.105 179.000 C 5.979 177.938,6.033 177.333,6.255 177.333 C 6.469 177.333,6.534 176.818,6.424 176.000 C 6.326 175.267,6.385 174.667,6.556 174.667 C 6.727 174.667,6.805 174.142,6.730 173.500 C 6.649 172.804,6.739 172.333,6.953 172.333 C 7.151 172.333,7.229 172.117,7.128 171.852 C 6.898 171.252,8.009 164.333,8.336 164.333 C 8.467 164.333,8.503 163.958,8.415 163.500 C 8.327 163.042,8.397 162.667,8.570 162.667 C 8.743 162.667,8.815 162.195,8.731 161.619 C 8.614 160.825,8.681 160.636,9.007 160.837 C 9.287 161.011,9.355 160.971,9.201 160.722 C 8.924 160.274,9.639 156.333,9.997 156.333 C 10.131 156.333,10.165 155.936,10.072 155.450 C 9.945 154.785,10.010 154.634,10.337 154.835 C 10.624 155.013,10.689 154.972,10.529 154.713 C 10.233 154.235,11.002 150.628,11.353 150.845 C 11.491 150.931,11.526 150.701,11.430 150.334 C 11.329 149.946,11.420 149.667,11.647 149.667 C 11.863 149.667,11.956 149.532,11.854 149.368 C 11.549 148.873,12.050 146.992,12.425 147.224 C 12.627 147.348,12.669 147.273,12.527 147.044 C 12.254 146.602,13.622 141.667,14.017 141.667 C 14.157 141.667,14.186 141.343,14.083 140.948 C 13.943 140.412,14.007 140.298,14.332 140.499 C 14.616 140.674,14.689 140.639,14.541 140.400 C 14.249 139.928,14.651 138.284,15.004 138.503 C 15.151 138.593,15.187 138.344,15.083 137.948 C 14.955 137.459,15.017 137.305,15.277 137.465 C 15.525 137.618,15.589 137.519,15.461 137.184 C 15.351 136.899,15.436 136.667,15.651 136.667 C 15.864 136.667,15.952 136.525,15.845 136.353 C 15.598 135.953,18.360 128.465,20.833 122.833 C 21.879 120.450,22.966 117.942,23.248 117.259 C 23.530 116.577,23.913 116.113,24.098 116.227 C 24.284 116.342,24.335 116.272,24.211 116.072 C 23.912 115.587,26.369 110.649,26.782 110.904 C 26.958 111.014,27.003 110.942,26.882 110.745 C 26.647 110.365,29.105 105.549,29.389 105.833 C 29.480 105.925,29.556 105.788,29.556 105.530 C 29.556 104.735,34.424 96.683,34.774 96.900 C 34.955 97.012,35.011 96.954,34.899 96.772 C 34.620 96.321,38.794 89.912,39.154 90.239 C 39.311 90.383,39.345 90.333,39.229 90.130 C 38.958 89.655,41.127 86.580,41.496 86.915 C 41.649 87.053,41.684 87.010,41.576 86.818 C 41.338 86.400,45.896 80.130,46.350 80.250 C 46.524 80.296,46.635 80.221,46.596 80.083 C 46.452 79.576,47.379 78.322,47.735 78.542 C 47.938 78.668,48.010 78.619,47.895 78.433 C 47.421 77.666,63.330 60.086,64.079 60.549 C 64.277 60.671,64.341 60.615,64.222 60.423 C 63.845 59.812,77.758 47.478,78.386 47.866 C 78.550 47.967,78.642 47.907,78.592 47.734 C 78.138 46.170,109.924 25.629,111.393 26.537 C 111.605 26.668,111.678 26.622,111.560 26.430 C 111.298 26.006,119.239 22.236,119.741 22.546 C 119.940 22.669,120.009 22.618,119.894 22.432 C 119.779 22.246,120.244 21.862,120.926 21.579 C 134.270 16.044,142.567 13.230,153.500 10.534 C 161.938 8.452,173.473 6.393,174.495 6.785 C 174.773 6.892,175.000 6.818,175.000 6.621 C 175.000 6.405,175.527 6.314,176.333 6.390 C 177.067 6.460,177.667 6.382,177.667 6.216 C 177.667 6.051,178.417 5.987,179.333 6.075 C 180.305 6.169,181.000 6.100,181.000 5.910 C 181.000 5.719,181.758 5.647,182.833 5.736 C 183.865 5.822,184.667 5.751,184.667 5.574 C 184.667 5.395,185.736 5.314,187.167 5.387 C 188.542 5.456,189.667 5.398,189.667 5.256 C 189.667 5.115,194.317 5.000,200.000 5.000 C 205.683 5.000,210.333 5.127,210.333 5.283 M159.330 6.982 C 93.123 20.848,38.500 68.085,14.877 131.900 C 12.815 137.472,9.581 147.909,9.755 148.430 C 9.815 148.612,10.127 147.802,10.449 146.630 C 29.622 76.699,88.382 21.958,160.167 7.151 C 163.100 6.546,165.125 6.048,164.667 6.045 C 164.208 6.041,161.807 6.463,159.330 6.982 M241.500 7.484 C 305.548 21.597,357.890 65.521,382.333 125.667 C 385.141 132.576,388.842 143.442,389.861 147.766 C 389.981 148.278,390.151 148.627,390.238 148.540 C 390.556 148.221,387.051 136.968,384.687 130.723 C 362.152 71.176,313.512 26.774,252.241 9.818 C 246.625 8.264,238.111 6.317,237.107 6.358 C 236.773 6.371,238.750 6.878,241.500 7.484 M196.417 18.914 C 197.838 18.977,200.162 18.977,201.583 18.914 C 203.004 18.852,201.842 18.801,199.000 18.801 C 196.158 18.801,194.996 18.852,196.417 18.914 M77.315 66.583 L 76.167 67.833 77.417 66.685 C 78.580 65.615,78.820 65.333,78.565 65.333 C 78.510 65.333,77.947 65.896,77.315 66.583 M71.818 71.750 L 70.500 73.167 71.917 71.849 C 72.696 71.124,73.333 70.487,73.333 70.432 C 73.333 70.180,73.043 70.433,71.818 71.750 M66.315 77.583 L 65.167 78.833 66.417 77.685 C 67.580 76.615,67.820 76.333,67.565 76.333 C 67.510 76.333,66.947 76.896,66.315 77.583 M290.448 109.500 C 290.449 110.967,290.507 111.525,290.578 110.741 C 290.648 109.957,290.647 108.757,290.576 108.075 C 290.504 107.392,290.446 108.033,290.448 109.500 M179.000 128.438 C 179.000 128.495,179.487 128.983,180.083 129.521 L 181.167 130.500 180.188 129.417 C 179.275 128.407,179.000 128.180,179.000 128.438 M219.812 129.417 L 218.833 130.500 219.917 129.521 C 220.512 128.983,221.000 128.495,221.000 128.438 C 221.000 128.180,220.725 128.407,219.812 129.417 M8.376 153.230 C 6.643 160.432,4.631 171.260,4.694 173.045 C 4.710 173.479,5.143 171.337,5.657 168.286 C 6.684 162.194,7.630 157.575,8.881 152.544 C 9.330 150.734,9.632 149.188,9.551 149.107 C 9.470 149.026,8.941 150.881,8.376 153.230 M390.342 149.194 C 390.358 149.795,391.940 155.491,391.970 155.056 C 392.004 154.551,390.684 149.241,390.472 149.028 C 390.396 148.951,390.337 149.026,390.342 149.194 M392.038 155.833 C 392.019 156.017,392.433 158.267,392.959 160.833 C 393.485 163.400,394.117 166.850,394.364 168.500 C 394.610 170.150,394.862 171.252,394.924 170.948 C 395.064 170.265,393.535 161.392,392.693 158.000 C 392.352 156.625,392.057 155.650,392.038 155.833 M395.068 172.333 C 395.057 172.792,395.332 175.417,395.681 178.167 C 396.160 181.955,396.267 182.440,396.122 180.167 C 395.920 176.996,395.102 170.916,395.068 172.333 M4.176 176.510 C 4.046 177.907,4.009 179.120,4.095 179.206 C 4.182 179.293,4.359 178.220,4.490 176.824 C 4.621 175.427,4.658 174.213,4.571 174.127 C 4.485 174.041,4.307 175.113,4.176 176.510 M3.767 181.333 C 3.767 182.342,3.829 182.754,3.905 182.250 C 3.982 181.746,3.982 180.921,3.905 180.417 C 3.829 179.912,3.767 180.325,3.767 181.333 M3.443 185.500 C 3.444 186.783,3.504 187.267,3.577 186.576 C 3.649 185.884,3.648 184.834,3.574 184.243 C 3.500 183.651,3.441 184.217,3.443 185.500 M396.443 185.500 C 396.444 186.783,396.504 187.267,396.577 186.576 C 396.649 185.884,396.648 184.834,396.574 184.243 C 396.500 183.651,396.441 184.217,396.443 185.500 M19.077 188.333 C 19.077 188.975,19.146 189.237,19.230 188.917 C 19.314 188.596,19.314 188.071,19.230 187.750 C 19.146 187.429,19.077 187.692,19.077 188.333 M2.885 192.052 C 2.626 196.862,2.658 204.587,2.954 209.000 C 3.071 210.742,3.167 206.729,3.167 200.083 C 3.167 193.438,3.152 188.000,3.135 188.000 C 3.117 188.000,3.004 189.824,2.885 192.052 M396.783 190.667 C 396.783 192.225,396.841 192.862,396.911 192.083 C 396.981 191.304,396.981 190.029,396.911 189.250 C 396.841 188.471,396.783 189.108,396.783 190.667 M397.140 200.000 C 397.140 203.575,397.189 205.037,397.249 203.250 C 397.308 201.463,397.308 198.537,397.249 196.750 C 397.189 194.963,397.140 196.425,397.140 200.000 M18.804 200.000 C 18.804 203.208,18.854 204.521,18.915 202.917 C 18.976 201.313,18.976 198.688,18.915 197.083 C 18.854 195.479,18.804 196.792,18.804 200.000 M203.417 199.896 C 203.737 199.980,204.262 199.980,204.583 199.896 C 204.904 199.813,204.642 199.744,204.000 199.744 C 203.358 199.744,203.096 199.813,203.417 199.896 M396.783 209.333 C 396.783 210.892,396.841 211.529,396.911 210.750 C 396.981 209.971,396.981 208.696,396.911 207.917 C 396.841 207.137,396.783 207.775,396.783 209.333 M3.443 214.500 C 3.444 215.783,3.504 216.267,3.577 215.576 C 3.649 214.884,3.648 213.834,3.574 213.243 C 3.500 212.651,3.441 213.217,3.443 214.500 M396.443 214.500 C 396.444 215.783,396.504 216.267,396.577 215.576 C 396.649 214.884,396.648 213.834,396.574 213.243 C 396.500 212.651,396.441 213.217,396.443 214.500 M3.767 218.667 C 3.767 219.675,3.829 220.088,3.905 219.583 C 3.982 219.079,3.982 218.254,3.905 217.750 C 3.829 217.246,3.767 217.658,3.767 218.667 M395.563 222.485 C 395.232 225.558,395.024 228.135,395.103 228.214 C 395.309 228.420,396.435 218.274,396.289 217.527 C 396.222 217.182,395.895 219.413,395.563 222.485 M4.074 221.667 C 4.065 222.308,4.175 223.583,4.318 224.500 C 4.528 225.848,4.581 225.944,4.593 225.000 C 4.601 224.358,4.491 223.083,4.349 222.167 C 4.139 220.818,4.086 220.723,4.074 221.667 M4.694 226.955 C 4.606 229.473,9.052 251.392,9.551 250.893 C 9.632 250.812,9.330 249.266,8.881 247.456 C 7.630 242.425,6.684 237.806,5.657 231.714 C 5.143 228.663,4.710 226.521,4.694 226.955 M394.390 231.333 C 394.156 232.892,393.514 236.395,392.963 239.119 C 392.412 241.843,392.023 244.134,392.100 244.211 C 392.429 244.540,395.126 230.048,394.924 229.038 C 394.864 228.742,394.624 229.775,394.390 231.333 M390.700 249.064 C 370.851 326.042,307.383 383.024,228.333 394.838 C 225.492 395.263,223.617 395.623,224.167 395.638 C 224.717 395.653,227.553 395.291,230.469 394.834 C 300.888 383.796,359.366 336.187,384.687 269.277 C 387.431 262.029,392.247 245.905,391.942 244.994 C 391.882 244.816,391.324 246.647,390.700 249.064 M9.693 251.523 C 9.624 252.455,13.048 263.216,15.401 269.463 C 38.949 331.978,92.358 378.217,157.667 392.631 C 160.142 393.177,162.917 393.702,163.833 393.797 L 165.500 393.971 163.833 393.622 C 146.836 390.058,135.730 386.655,122.167 380.853 C 69.787 358.447,28.928 313.178,12.185 259.000 C 9.857 251.469,9.726 251.076,9.693 251.523 M198.917 262.574 C 199.512 262.648,200.487 262.648,201.083 262.574 C 201.679 262.501,201.192 262.440,200.000 262.440 C 198.808 262.440,198.321 262.501,198.917 262.574 M66.333 322.500 C 66.955 323.142,67.539 323.667,67.631 323.667 C 67.722 323.667,67.289 323.142,66.667 322.500 C 66.045 321.858,65.461 321.333,65.369 321.333 C 65.278 321.333,65.711 321.858,66.333 322.500 M71.667 328.167 C 72.289 328.808,72.872 329.333,72.964 329.333 C 73.056 329.333,72.622 328.808,72.000 328.167 C 71.378 327.525,70.794 327.000,70.703 327.000 C 70.611 327.000,71.045 327.525,71.667 328.167 M77.333 333.500 C 77.955 334.142,78.539 334.667,78.631 334.667 C 78.722 334.667,78.289 334.142,77.667 333.500 C 77.045 332.858,76.461 332.333,76.369 332.333 C 76.278 332.333,76.711 332.858,77.333 333.500 M135.833 354.667 C 137.107 355.950,138.224 357.000,138.315 357.000 C 138.407 357.000,137.440 355.950,136.167 354.667 C 134.893 353.383,133.776 352.333,133.685 352.333 C 133.593 352.333,134.560 353.383,135.833 354.667 M188.167 380.667 C 187.576 380.921,187.604 380.956,188.417 380.977 C 188.921 380.989,189.333 380.850,189.333 380.667 C 189.333 380.275,189.077 380.275,188.167 380.667 M194.587 381.236 C 195.002 381.315,195.602 381.312,195.921 381.229 C 196.239 381.146,195.900 381.080,195.167 381.084 C 194.433 381.088,194.173 381.156,194.587 381.236 M166.500 394.333 C 167.050 394.473,167.950 394.588,168.500 394.589 C 169.341 394.590,169.288 394.546,168.167 394.314 C 166.478 393.965,165.114 393.981,166.500 394.333 M172.000 395.188 C 173.375 395.428,175.025 395.617,175.667 395.607 C 176.308 395.598,175.558 395.395,174.000 395.157 C 170.321 394.596,168.751 394.620,172.000 395.188 M177.583 395.902 C 177.996 395.981,178.671 395.981,179.083 395.902 C 179.496 395.822,179.158 395.757,178.333 395.757 C 177.508 395.757,177.171 395.822,177.583 395.902 M220.917 395.902 C 221.329 395.981,222.004 395.981,222.417 395.902 C 222.829 395.822,222.492 395.757,221.667 395.757 C 220.842 395.757,220.504 395.822,220.917 395.902 M181.833 396.329 C 183.950 396.610,187.873 396.753,187.639 396.541 C 187.563 396.473,185.775 396.337,183.667 396.240 C 181.023 396.119,180.454 396.147,181.833 396.329 M217.755 396.239 C 218.261 396.316,219.011 396.314,219.421 396.235 C 219.831 396.156,219.417 396.093,218.500 396.095 C 217.583 396.098,217.248 396.163,217.755 396.239 M213.243 396.574 C 213.834 396.648,214.884 396.649,215.576 396.577 C 216.267 396.504,215.783 396.444,214.500 396.443 C 213.217 396.441,212.651 396.500,213.243 396.574 M190.097 396.914 C 191.342 396.978,193.292 396.978,194.431 396.913 C 195.569 396.848,194.550 396.796,192.167 396.796 C 189.783 396.797,188.852 396.850,190.097 396.914 M205.764 396.914 C 207.009 396.978,208.959 396.978,210.097 396.913 C 211.235 396.848,210.217 396.796,207.833 396.796 C 205.450 396.797,204.519 396.850,205.764 396.914 M198.417 397.245 C 199.287 397.314,200.713 397.314,201.583 397.245 C 202.454 397.176,201.742 397.120,200.000 397.120 C 198.258 397.120,197.546 397.176,198.417 397.245 " stroke="none" fill="#a3a3a3" fill-rule="evenodd"></path><path id="path3" d="M188.167 1.874 C 136.658 5.791,94.676 24.642,59.833 59.498 C 35.258 84.083,20.019 109.930,9.618 144.667 C -15.658 229.076,19.979 322.306,95.333 368.908 C 166.628 412.999,260.283 407.109,324.944 354.467 C 404.018 290.092,421.672 175.955,365.747 90.667 C 333.123 40.912,280.675 9.089,220.667 2.635 C 214.477 1.970,193.400 1.476,188.167 1.874 M208.500 2.670 C 248.665 4.520,286.284 17.819,317.865 41.334 C 415.689 114.173,424.896 257.249,337.227 342.221 C 284.784 393.050,207.694 410.564,137.833 387.519 C 43.047 356.253,-13.343 259.042,6.349 160.853 C 14.256 121.430,33.645 86.011,62.773 57.779 C 101.410 20.331,154.666 0.191,208.500 2.670 M193.333 3.226 C 87.492 6.582,3.187 93.826,3.187 200.000 C 3.187 318.548,106.884 409.991,224.667 395.307 C 300.823 385.812,365.051 332.201,387.767 259.167 C 426.343 135.137,338.171 9.309,208.500 3.337 C 201.847 3.031,199.924 3.017,193.333 3.226 M218.333 4.489 C 351.570 17.975,432.767 154.907,380.329 277.684 C 336.643 379.970,214.713 425.384,114.500 376.693 C -2.693 319.752,-33.076 167.592,53.193 69.667 C 87.680 30.520,135.613 7.442,189.833 3.878 C 194.352 3.581,213.392 3.989,218.333 4.489 M193.333 4.204 C 87.272 8.365,4.225 94.349,4.225 200.000 C 4.225 308.386,91.736 395.813,200.167 395.753 C 319.487 395.686,410.853 290.008,393.822 171.761 C 379.664 73.461,292.156 0.327,193.333 4.204 M219.667 5.477 C 349.540 20.116,429.305 151.178,381.772 271.833 C 333.200 395.127,176.998 435.121,75.167 350.336 C -37.962 256.145,-10.315 75.432,125.833 19.148 C 154.219 7.414,190.261 2.162,219.667 5.477 M189.667 5.256 C 189.667 5.398,188.542 5.456,187.167 5.387 C 185.736 5.314,184.667 5.395,184.667 5.574 C 184.667 5.751,183.865 5.822,182.833 5.736 C 181.758 5.647,181.000 5.719,181.000 5.910 C 181.000 6.100,180.305 6.169,179.333 6.075 C 178.417 5.987,177.667 6.051,177.667 6.216 C 177.667 6.382,177.067 6.460,176.333 6.390 C 175.469 6.308,175.000 6.400,175.000 6.651 C 175.000 6.865,174.846 6.944,174.657 6.827 C 174.197 6.543,169.967 7.010,170.161 7.324 C 170.245 7.459,169.980 7.508,169.573 7.431 C 167.627 7.066,143.186 12.742,143.850 13.406 C 143.969 13.524,143.728 13.533,143.314 13.425 C 142.828 13.298,142.640 13.354,142.782 13.583 C 142.922 13.810,142.743 13.870,142.282 13.750 C 141.821 13.629,141.641 13.689,141.782 13.916 C 141.914 14.131,141.770 14.215,141.417 14.130 C 140.726 13.963,133.557 16.446,133.859 16.748 C 133.973 16.862,133.728 16.866,133.314 16.758 C 132.836 16.633,132.641 16.688,132.778 16.910 C 132.896 17.101,132.807 17.251,132.580 17.243 C 131.439 17.202,130.978 17.361,131.198 17.718 C 131.346 17.957,131.290 18.012,131.050 17.864 C 130.602 17.587,128.297 18.338,128.514 18.690 C 128.594 18.819,128.474 18.918,128.246 18.910 C 127.106 18.869,126.644 19.028,126.865 19.385 C 127.003 19.608,126.958 19.680,126.756 19.555 C 126.245 19.240,124.295 20.002,124.552 20.417 C 124.683 20.629,124.610 20.671,124.369 20.522 C 123.856 20.205,119.643 22.025,119.905 22.450 C 120.014 22.626,119.940 22.669,119.741 22.546 C 119.239 22.236,111.298 26.006,111.560 26.430 C 111.678 26.622,111.605 26.668,111.392 26.536 C 110.914 26.241,106.245 28.792,106.583 29.164 C 106.721 29.316,106.655 29.338,106.437 29.213 C 105.941 28.929,103.911 30.124,104.251 30.499 C 104.388 30.650,104.313 30.666,104.084 30.534 C 103.564 30.235,101.631 31.339,101.903 31.779 C 102.013 31.957,101.938 32.001,101.736 31.876 C 101.260 31.582,95.642 35.023,95.904 35.448 C 96.013 35.625,95.934 35.665,95.728 35.538 C 95.292 35.269,93.594 36.279,93.833 36.665 C 93.921 36.808,93.732 36.904,93.413 36.879 C 93.092 36.854,92.874 37.031,92.925 37.275 C 92.975 37.518,92.861 37.620,92.671 37.503 C 92.062 37.126,78.395 47.057,78.592 47.734 C 78.642 47.907,78.555 47.970,78.397 47.873 C 78.014 47.636,72.142 52.559,72.258 53.020 C 72.309 53.220,72.222 53.304,72.065 53.207 C 71.666 52.960,69.284 54.984,69.522 55.368 C 69.629 55.542,69.565 55.642,69.380 55.592 C 68.851 55.448,63.964 60.006,64.214 60.410 C 64.336 60.608,64.286 60.677,64.103 60.563 C 63.767 60.356,61.835 62.124,62.051 62.441 C 62.115 62.535,62.030 62.736,61.863 62.889 C 61.683 63.054,61.672 62.964,61.837 62.667 C 62.014 62.348,61.852 62.397,61.391 62.802 C 60.613 63.484,60.423 63.856,61.052 63.468 C 61.292 63.320,61.346 63.377,61.195 63.621 C 61.062 63.835,60.826 63.932,60.670 63.835 C 60.322 63.620,55.463 68.935,55.592 69.391 C 55.642 69.570,55.539 69.627,55.363 69.518 C 55.012 69.302,52.782 71.909,52.917 72.378 C 52.962 72.537,52.858 72.629,52.684 72.583 C 52.225 72.462,47.660 78.053,47.900 78.442 C 48.012 78.622,47.937 78.667,47.735 78.542 C 47.379 78.322,46.452 79.576,46.596 80.083 C 46.635 80.221,46.529 80.296,46.361 80.250 C 45.899 80.124,42.320 85.037,42.562 85.463 C 42.679 85.667,42.654 85.726,42.509 85.594 C 41.775 84.931,29.021 104.845,29.566 105.803 C 29.680 106.003,29.649 106.054,29.498 105.916 C 29.135 105.588,26.594 110.279,26.882 110.745 C 27.003 110.942,26.956 111.012,26.777 110.901 C 26.362 110.645,24.911 113.586,25.212 114.073 C 25.335 114.273,25.285 114.343,25.100 114.229 C 24.675 113.966,23.915 115.582,24.216 116.108 C 24.339 116.324,24.309 116.380,24.148 116.234 C 23.785 115.903,22.258 119.275,22.554 119.755 C 22.673 119.946,22.623 120.012,22.443 119.901 C 22.043 119.654,19.924 124.607,20.223 125.091 C 20.340 125.281,20.292 125.347,20.116 125.238 C 19.711 124.988,17.902 129.571,18.209 130.069 C 18.334 130.271,18.287 130.344,18.104 130.231 C 17.710 129.987,16.936 132.280,17.234 132.805 C 17.348 133.004,17.308 133.046,17.146 132.899 C 16.814 132.595,15.581 135.925,15.859 136.375 C 15.958 136.535,15.864 136.667,15.651 136.667 C 15.436 136.667,15.351 136.899,15.461 137.184 C 15.589 137.519,15.525 137.618,15.277 137.465 C 15.017 137.305,14.955 137.459,15.083 137.948 C 15.187 138.344,15.151 138.593,15.004 138.503 C 14.651 138.284,14.249 139.928,14.541 140.400 C 14.689 140.639,14.616 140.674,14.332 140.499 C 14.007 140.298,13.943 140.412,14.083 140.948 C 14.186 141.343,14.157 141.667,14.017 141.667 C 13.622 141.667,12.254 146.602,12.527 147.044 C 12.669 147.273,12.627 147.348,12.425 147.224 C 12.050 146.992,11.549 148.873,11.854 149.368 C 11.956 149.532,11.863 149.667,11.647 149.667 C 11.420 149.667,11.329 149.946,11.430 150.334 C 11.526 150.701,11.485 150.927,11.339 150.837 C 10.988 150.620,10.567 152.903,10.869 153.391 C 11.022 153.639,10.953 153.677,10.670 153.502 C 10.344 153.301,10.278 153.450,10.404 154.107 C 10.506 154.641,10.441 154.900,10.237 154.774 C 10.032 154.647,9.969 154.909,10.072 155.450 C 10.165 155.936,10.131 156.333,9.997 156.333 C 9.639 156.333,8.924 160.274,9.201 160.722 C 9.355 160.971,9.287 161.011,9.007 160.837 C 8.681 160.636,8.614 160.825,8.731 161.619 C 8.815 162.195,8.743 162.667,8.570 162.667 C 8.397 162.667,8.327 163.042,8.415 163.500 C 8.503 163.958,8.467 164.333,8.336 164.333 C 8.009 164.333,6.898 171.252,7.128 171.852 C 7.229 172.117,7.151 172.333,6.953 172.333 C 6.739 172.333,6.649 172.804,6.730 173.500 C 6.805 174.142,6.727 174.667,6.556 174.667 C 6.385 174.667,6.326 175.267,6.424 176.000 C 6.534 176.818,6.469 177.333,6.255 177.333 C 6.033 177.333,5.979 177.938,6.105 179.000 C 6.235 180.102,6.179 180.667,5.938 180.667 C 5.694 180.667,5.645 181.267,5.790 182.500 C 5.942 183.787,5.891 184.333,5.621 184.333 C 5.349 184.333,5.294 185.012,5.432 186.659 C 5.539 187.939,5.522 189.050,5.393 189.130 C 5.081 189.322,5.105 210.550,5.418 210.862 C 5.552 210.996,5.566 212.132,5.450 213.386 C 5.299 215.008,5.349 215.667,5.622 215.667 C 5.891 215.667,5.942 216.214,5.790 217.500 C 5.643 218.758,5.692 219.333,5.948 219.333 C 6.196 219.333,6.254 219.819,6.121 220.789 C 6.004 221.644,6.062 222.332,6.262 222.456 C 6.454 222.575,6.525 223.249,6.424 224.000 C 6.326 224.733,6.385 225.333,6.556 225.333 C 6.727 225.333,6.805 225.858,6.730 226.500 C 6.649 227.196,6.739 227.667,6.953 227.667 C 7.151 227.667,7.226 227.891,7.121 228.166 C 6.892 228.761,8.328 237.333,8.657 237.333 C 8.782 237.333,8.815 237.805,8.731 238.381 C 8.614 239.175,8.681 239.364,9.007 239.163 C 9.287 238.989,9.355 239.029,9.201 239.278 C 8.924 239.726,9.639 243.667,9.997 243.667 C 10.131 243.667,10.165 244.064,10.072 244.550 C 9.969 245.091,10.032 245.353,10.237 245.226 C 10.441 245.100,10.506 245.359,10.404 245.893 C 10.278 246.550,10.344 246.699,10.670 246.498 C 10.953 246.323,11.022 246.361,10.869 246.609 C 10.567 247.097,10.988 249.380,11.339 249.163 C 11.485 249.073,11.526 249.299,11.430 249.666 C 11.329 250.054,11.420 250.333,11.647 250.333 C 11.863 250.333,11.956 250.468,11.854 250.632 C 11.549 251.127,12.050 253.008,12.425 252.776 C 12.627 252.652,12.669 252.727,12.527 252.956 C 12.254 253.398,13.622 258.333,14.017 258.333 C 14.157 258.333,14.186 258.657,14.083 259.052 C 13.943 259.588,14.007 259.702,14.332 259.501 C 14.616 259.326,14.689 259.361,14.541 259.600 C 14.249 260.072,14.651 261.716,15.004 261.497 C 15.151 261.407,15.187 261.656,15.083 262.052 C 14.955 262.541,15.017 262.695,15.277 262.535 C 15.525 262.382,15.589 262.481,15.461 262.816 C 15.351 263.101,15.436 263.333,15.651 263.333 C 15.864 263.333,15.958 263.465,15.859 263.625 C 15.581 264.075,16.814 267.405,17.146 267.101 C 17.308 266.954,17.348 266.996,17.234 267.195 C 16.936 267.720,17.710 270.013,18.104 269.769 C 18.287 269.656,18.336 269.726,18.213 269.925 C 17.912 270.412,19.791 275.091,20.154 274.761 C 20.311 274.617,20.343 274.670,20.225 274.877 C 19.930 275.394,22.035 280.351,22.443 280.099 C 22.623 279.988,22.673 280.054,22.554 280.245 C 22.258 280.725,23.785 284.097,24.148 283.766 C 24.309 283.620,24.339 283.676,24.216 283.892 C 23.915 284.418,24.675 286.034,25.100 285.771 C 25.285 285.657,25.336 285.727,25.213 285.926 C 24.910 286.415,26.024 288.691,26.440 288.434 C 26.621 288.322,26.672 288.389,26.552 288.583 C 26.266 289.046,29.137 294.411,29.497 294.084 C 29.649 293.946,29.680 293.997,29.566 294.197 C 29.031 295.138,42.425 316.013,43.390 315.742 C 43.569 315.691,43.631 315.787,43.528 315.955 C 43.286 316.346,47.265 321.530,47.713 321.408 C 47.898 321.358,47.970 321.445,47.873 321.602 C 47.651 321.962,52.258 327.529,52.684 327.417 C 52.858 327.371,52.963 327.463,52.917 327.622 C 52.771 328.127,55.025 330.691,55.406 330.455 C 55.606 330.331,55.680 330.375,55.571 330.552 C 55.462 330.729,56.648 332.214,58.207 333.853 C 59.766 335.492,60.934 336.623,60.803 336.365 C 60.645 336.056,60.696 335.979,60.954 336.138 C 61.169 336.271,61.268 336.502,61.176 336.652 C 60.941 337.032,61.833 337.717,62.167 337.414 C 62.317 337.278,62.349 337.328,62.237 337.524 C 61.908 338.103,71.460 347.167,72.028 346.816 C 72.205 346.707,72.309 346.780,72.258 346.980 C 72.142 347.441,78.014 352.364,78.397 352.127 C 78.555 352.030,78.642 352.093,78.592 352.268 C 78.459 352.728,85.019 357.694,85.427 357.442 C 85.616 357.326,85.678 357.379,85.565 357.561 C 85.306 357.981,92.220 362.776,92.677 362.493 C 92.864 362.378,92.975 362.482,92.925 362.725 C 92.875 362.968,93.090 363.147,93.404 363.123 C 93.717 363.098,93.942 363.248,93.904 363.456 C 93.865 363.663,94.090 363.813,94.404 363.789 C 94.717 363.765,94.942 363.915,94.904 364.123 C 94.865 364.330,95.094 364.479,95.413 364.454 C 95.732 364.429,95.928 364.513,95.849 364.641 C 95.624 365.006,101.324 368.378,101.736 368.124 C 101.938 367.999,102.013 368.043,101.903 368.221 C 101.631 368.661,103.564 369.765,104.084 369.466 C 104.313 369.334,104.388 369.350,104.251 369.501 C 103.919 369.868,105.940 371.077,106.405 370.789 C 106.609 370.663,106.676 370.716,106.556 370.910 C 106.266 371.379,119.164 377.805,119.735 377.476 C 119.972 377.339,120.054 377.351,119.915 377.503 C 119.604 377.847,123.670 379.709,124.267 379.496 C 124.506 379.411,124.619 379.475,124.518 379.638 C 124.286 380.012,126.289 380.734,126.756 380.445 C 126.958 380.320,127.003 380.392,126.865 380.615 C 126.644 380.972,127.106 381.131,128.246 381.090 C 128.474 381.082,128.594 381.181,128.514 381.310 C 128.297 381.662,130.602 382.413,131.050 382.136 C 131.290 381.988,131.346 382.043,131.198 382.282 C 130.978 382.639,131.439 382.798,132.580 382.757 C 132.807 382.749,132.896 382.899,132.778 383.090 C 132.642 383.310,132.828 383.369,133.282 383.250 C 133.677 383.147,133.934 383.170,133.853 383.302 C 133.634 383.655,139.264 385.415,139.717 385.135 C 139.973 384.977,140.012 385.044,139.833 385.334 C 139.631 385.660,139.746 385.724,140.282 385.584 C 140.743 385.463,140.922 385.523,140.782 385.750 C 140.641 385.978,140.821 386.037,141.282 385.917 C 141.743 385.796,141.922 385.856,141.782 386.084 C 141.641 386.311,141.821 386.371,142.282 386.250 C 142.677 386.147,142.931 386.176,142.845 386.315 C 142.627 386.667,147.931 388.082,148.394 387.796 C 148.600 387.668,148.680 387.709,148.570 387.887 C 148.191 388.500,168.273 392.935,169.718 392.557 C 170.057 392.468,170.261 392.514,170.171 392.659 C 169.970 392.985,174.182 393.466,174.657 393.173 C 174.846 393.056,175.000 393.135,175.000 393.349 C 175.000 393.600,175.469 393.692,176.333 393.610 C 177.067 393.540,177.667 393.618,177.667 393.784 C 177.667 393.949,178.417 394.013,179.333 393.925 C 180.321 393.830,181.000 393.899,181.000 394.095 C 181.000 394.297,181.778 394.355,183.000 394.245 C 184.275 394.129,185.000 394.188,185.000 394.409 C 185.000 394.631,185.893 394.697,187.500 394.594 C 188.875 394.506,190.000 394.561,190.000 394.717 C 190.000 394.873,194.575 395.000,200.167 395.000 C 205.758 395.000,210.333 394.873,210.333 394.717 C 210.333 394.561,211.458 394.506,212.833 394.594 C 214.326 394.690,215.333 394.625,215.333 394.433 C 215.333 394.247,216.107 394.176,217.167 394.264 C 218.242 394.353,219.000 394.281,219.000 394.090 C 219.000 393.900,219.695 393.831,220.667 393.925 C 221.583 394.013,222.335 393.953,222.336 393.792 C 222.337 393.632,223.275 393.481,224.419 393.457 C 227.054 393.403,237.129 391.717,237.278 391.305 C 237.340 391.135,237.536 391.086,237.713 391.195 C 238.138 391.458,248.029 389.317,247.836 389.004 C 247.754 388.872,248.080 388.838,248.560 388.930 C 249.216 389.055,249.366 388.989,249.165 388.663 C 248.987 388.377,249.028 388.311,249.285 388.470 C 249.741 388.752,256.360 386.979,256.145 386.632 C 256.065 386.502,256.323 386.480,256.718 386.584 C 257.254 386.724,257.369 386.660,257.167 386.334 C 256.978 386.029,257.026 385.977,257.325 386.162 C 257.807 386.459,266.378 383.676,266.145 383.298 C 266.065 383.168,266.323 383.147,266.718 383.250 C 267.172 383.369,267.358 383.310,267.222 383.090 C 267.104 382.899,267.193 382.749,267.420 382.757 C 268.561 382.798,269.022 382.639,268.802 382.282 C 268.654 382.043,268.710 381.988,268.950 382.136 C 269.398 382.413,271.703 381.662,271.486 381.310 C 271.406 381.181,271.526 381.082,271.754 381.090 C 272.894 381.131,273.356 380.972,273.135 380.615 C 272.993 380.386,273.043 380.320,273.258 380.453 C 273.963 380.889,288.809 374.166,288.444 373.576 C 288.326 373.385,288.391 373.329,288.589 373.452 C 289.054 373.740,293.746 371.198,293.417 370.836 C 293.279 370.684,293.345 370.662,293.563 370.787 C 294.059 371.071,296.089 369.876,295.749 369.501 C 295.612 369.350,295.687 369.334,295.916 369.466 C 296.436 369.765,298.369 368.661,298.097 368.221 C 297.987 368.043,298.062 367.999,298.264 368.124 C 298.740 368.418,304.358 364.977,304.096 364.552 C 303.987 364.375,304.068 364.336,304.278 364.466 C 304.991 364.906,321.634 353.059,321.408 352.271 C 321.358 352.095,321.445 352.029,321.601 352.126 C 321.866 352.290,324.554 350.273,325.667 349.075 C 326.123 348.583,326.109 348.578,325.500 349.018 C 324.885 349.462,324.869 349.455,325.288 348.920 C 325.538 348.602,325.858 348.412,325.999 348.499 C 326.407 348.751,328.030 347.318,327.785 346.922 C 327.660 346.719,327.719 346.660,327.921 346.784 C 328.393 347.076,336.069 340.049,335.784 339.587 C 335.663 339.391,335.712 339.322,335.893 339.434 C 336.211 339.630,339.021 337.032,339.119 336.451 C 339.145 336.295,339.271 336.202,339.399 336.244 C 339.743 336.359,344.516 330.990,344.408 330.609 C 344.358 330.430,344.461 330.373,344.637 330.482 C 344.999 330.706,347.217 328.083,347.075 327.598 C 347.025 327.425,347.117 327.366,347.280 327.467 C 347.627 327.682,352.211 322.075,352.075 321.603 C 352.025 321.427,352.117 321.366,352.281 321.468 C 353.215 322.045,370.444 296.427,370.444 294.462 C 370.444 294.208,370.522 294.077,370.617 294.172 C 370.890 294.446,373.329 289.595,373.102 289.228 C 372.977 289.027,373.070 289.004,373.338 289.170 C 373.662 289.370,373.721 289.289,373.560 288.871 C 373.440 288.556,373.465 288.375,373.616 288.468 C 373.993 288.702,375.065 286.375,374.787 285.926 C 374.664 285.727,374.715 285.657,374.900 285.771 C 375.325 286.034,376.085 284.418,375.784 283.892 C 375.661 283.676,375.681 283.610,375.829 283.743 C 376.180 284.061,377.733 280.710,377.448 280.249 C 377.328 280.056,377.377 279.988,377.557 280.099 C 377.965 280.351,380.070 275.394,379.775 274.877 C 379.657 274.670,379.691 274.619,379.851 274.765 C 380.218 275.101,383.044 268.006,382.807 267.343 C 382.710 267.074,382.748 266.970,382.889 267.112 C 383.195 267.417,384.403 264.050,384.141 263.625 C 384.042 263.465,384.136 263.333,384.349 263.333 C 384.563 263.333,384.652 263.108,384.546 262.833 C 384.441 262.558,384.516 262.333,384.713 262.333 C 384.910 262.333,384.982 262.101,384.873 261.816 C 384.764 261.531,384.807 261.380,384.968 261.480 C 385.319 261.697,385.773 260.108,385.491 259.651 C 385.382 259.476,385.469 259.333,385.683 259.333 C 385.896 259.333,385.985 259.108,385.879 258.833 C 385.774 258.558,385.809 258.333,385.958 258.333 C 386.353 258.333,387.071 255.718,386.797 255.275 C 386.669 255.067,386.708 254.986,386.884 255.095 C 387.254 255.324,388.456 251.134,388.158 250.653 C 388.050 250.477,388.137 250.333,388.353 250.333 C 388.577 250.333,388.672 250.056,388.574 249.683 C 388.481 249.325,388.563 248.979,388.758 248.914 C 388.952 248.849,389.124 248.257,389.139 247.598 C 389.154 246.939,389.301 246.482,389.465 246.583 C 389.629 246.683,389.688 246.373,389.596 245.893 C 389.494 245.359,389.559 245.100,389.763 245.226 C 389.968 245.353,390.031 245.091,389.928 244.550 C 389.835 244.064,389.869 243.667,390.003 243.667 C 390.361 243.667,391.076 239.726,390.799 239.278 C 390.645 239.029,390.713 238.989,390.993 239.163 C 391.319 239.364,391.386 239.177,391.270 238.389 C 391.186 237.817,391.229 237.308,391.366 237.258 C 391.761 237.112,393.408 226.678,393.180 225.768 C 393.032 225.178,393.086 225.014,393.371 225.190 C 393.664 225.371,393.720 225.073,393.582 224.051 C 393.476 223.259,393.543 222.577,393.738 222.456 C 393.938 222.332,393.996 221.644,393.879 220.789 C 393.746 219.818,393.804 219.333,394.053 219.333 C 394.307 219.333,394.366 218.744,394.237 217.500 C 394.113 216.298,394.171 215.667,394.406 215.667 C 394.648 215.667,394.696 214.862,394.555 213.183 C 394.439 211.817,394.455 210.631,394.590 210.547 C 394.904 210.353,394.900 189.789,394.586 189.475 C 394.456 189.345,394.443 188.135,394.557 186.786 C 394.705 185.033,394.655 184.333,394.379 184.333 C 394.109 184.333,394.058 183.789,394.210 182.500 C 394.357 181.242,394.308 180.667,394.052 180.667 C 393.804 180.667,393.746 180.181,393.879 179.211 C 393.996 178.356,393.938 177.668,393.738 177.544 C 393.543 177.423,393.476 176.741,393.582 175.949 C 393.720 174.927,393.664 174.629,393.371 174.810 C 393.086 174.986,393.032 174.822,393.180 174.232 C 393.408 173.322,391.761 162.888,391.366 162.742 C 391.229 162.692,391.186 162.183,391.270 161.611 C 391.386 160.823,391.319 160.636,390.993 160.837 C 390.713 161.011,390.645 160.971,390.799 160.722 C 391.076 160.274,390.361 156.333,390.003 156.333 C 389.869 156.333,389.835 155.936,389.928 155.450 C 390.031 154.909,389.968 154.647,389.763 154.774 C 389.559 154.900,389.494 154.641,389.596 154.107 C 389.722 153.450,389.656 153.301,389.330 153.502 C 389.047 153.677,388.978 153.639,389.131 153.391 C 389.433 152.903,389.012 150.620,388.661 150.837 C 388.515 150.927,388.474 150.701,388.570 150.334 C 388.671 149.946,388.580 149.667,388.353 149.667 C 388.137 149.667,388.050 149.523,388.158 149.347 C 388.456 148.866,387.254 144.676,386.884 144.905 C 386.708 145.014,386.669 144.933,386.797 144.725 C 387.071 144.282,386.353 141.667,385.958 141.667 C 385.809 141.667,385.774 141.442,385.879 141.167 C 385.985 140.892,385.896 140.667,385.683 140.667 C 385.469 140.667,385.382 140.524,385.491 140.349 C 385.760 139.913,385.327 138.298,384.996 138.503 C 384.849 138.593,384.813 138.344,384.917 137.948 C 385.045 137.459,384.983 137.305,384.723 137.465 C 384.475 137.618,384.411 137.519,384.539 137.184 C 384.649 136.899,384.564 136.667,384.349 136.667 C 384.136 136.667,384.042 136.535,384.141 136.375 C 384.403 135.950,383.195 132.583,382.889 132.888 C 382.748 133.030,382.710 132.926,382.807 132.657 C 383.044 131.994,380.218 124.899,379.851 125.235 C 379.691 125.381,379.657 125.330,379.775 125.123 C 380.070 124.606,377.965 119.649,377.557 119.901 C 377.377 120.012,377.328 119.944,377.448 119.751 C 377.733 119.290,376.180 115.939,375.829 116.257 C 375.681 116.390,375.659 116.326,375.781 116.113 C 376.088 115.576,375.674 114.623,375.247 114.887 C 375.050 115.008,374.995 114.944,375.121 114.740 C 375.398 114.293,373.989 111.301,373.612 111.534 C 373.463 111.626,373.440 111.444,373.560 111.129 C 373.721 110.711,373.662 110.630,373.338 110.830 C 373.070 110.996,372.977 110.973,373.102 110.772 C 373.382 110.319,370.859 105.592,370.508 105.911 C 370.353 106.052,370.320 106.003,370.434 105.803 C 370.911 104.963,358.320 85.096,357.595 85.544 C 357.394 85.668,357.324 85.618,357.439 85.431 C 357.686 85.033,354.088 80.128,353.639 80.250 C 353.471 80.296,353.365 80.221,353.404 80.083 C 353.548 79.576,352.621 78.322,352.265 78.542 C 352.063 78.667,351.988 78.622,352.100 78.442 C 352.340 78.053,347.775 72.462,347.316 72.583 C 347.142 72.629,347.038 72.537,347.083 72.378 C 347.218 71.909,344.988 69.302,344.637 69.518 C 344.461 69.627,344.358 69.570,344.408 69.391 C 344.516 69.010,339.743 63.641,339.399 63.756 C 339.271 63.798,339.123 63.683,339.070 63.500 C 338.772 62.479,328.411 52.913,327.927 53.212 C 327.722 53.339,327.658 53.283,327.781 53.084 C 328.019 52.700,323.782 49.109,323.267 49.258 C 323.093 49.309,323.041 49.204,323.151 49.025 C 323.352 48.701,322.056 47.795,321.583 47.929 C 321.446 47.968,321.371 47.863,321.417 47.695 C 321.629 46.919,304.976 35.103,304.278 35.534 C 304.068 35.664,303.987 35.625,304.096 35.448 C 304.358 35.023,298.740 31.582,298.264 31.876 C 298.062 32.001,297.987 31.957,298.097 31.779 C 298.369 31.339,296.436 30.235,295.916 30.534 C 295.687 30.666,295.612 30.650,295.749 30.499 C 296.089 30.124,294.059 28.929,293.563 29.213 C 293.345 29.338,293.279 29.316,293.417 29.164 C 293.755 28.792,289.086 26.241,288.608 26.536 C 288.392 26.670,288.322 26.622,288.444 26.424 C 288.809 25.834,273.963 19.111,273.258 19.547 C 273.043 19.680,272.993 19.614,273.135 19.385 C 273.356 19.028,272.894 18.869,271.754 18.910 C 271.526 18.918,271.423 18.792,271.523 18.629 C 271.691 18.358,271.125 18.206,270.087 18.243 C 269.860 18.251,269.771 18.101,269.889 17.910 C 270.025 17.690,269.838 17.631,269.385 17.750 C 268.989 17.853,268.743 17.813,268.838 17.660 C 269.070 17.283,267.771 16.896,267.285 17.197 C 267.027 17.356,266.987 17.290,267.167 16.999 C 267.369 16.673,267.254 16.610,266.718 16.750 C 266.323 16.853,266.063 16.834,266.142 16.707 C 266.361 16.352,258.084 13.563,257.489 13.791 C 257.148 13.922,257.048 13.859,257.201 13.610 C 257.362 13.350,257.208 13.288,256.718 13.416 C 256.323 13.520,256.065 13.497,256.146 13.366 C 256.352 13.033,253.367 12.273,252.925 12.546 C 252.726 12.669,252.656 12.621,252.768 12.439 C 253.010 12.047,249.772 11.229,249.252 11.550 C 249.056 11.671,248.993 11.614,249.112 11.421 C 249.368 11.007,247.171 10.522,246.609 10.869 C 246.398 10.999,246.321 10.956,246.435 10.771 C 246.689 10.361,239.844 8.851,239.288 9.195 C 239.029 9.355,238.987 9.291,239.163 9.007 C 239.364 8.681,239.177 8.614,238.389 8.730 C 237.817 8.814,237.308 8.771,237.258 8.634 C 237.123 8.268,226.837 6.592,224.419 6.543 C 223.275 6.519,222.337 6.368,222.336 6.208 C 222.335 6.047,221.583 5.987,220.667 6.075 C 219.695 6.169,219.000 6.100,219.000 5.910 C 219.000 5.719,218.242 5.647,217.167 5.736 C 216.107 5.824,215.333 5.753,215.333 5.567 C 215.333 5.375,214.326 5.310,212.833 5.406 C 211.458 5.494,210.333 5.439,210.333 5.283 C 210.333 5.127,205.683 5.000,200.000 5.000 C 194.317 5.000,189.667 5.115,189.667 5.256 M201.595 5.911 C 200.730 5.980,199.230 5.980,198.261 5.913 C 197.293 5.845,198.000 5.789,199.833 5.788 C 201.667 5.788,202.459 5.843,201.595 5.911 M210.667 19.138 C 277.279 22.095,340.145 66.257,366.585 128.667 C 412.124 236.159,346.896 357.256,232.111 378.322 C 221.969 380.183,204.779 381.575,196.500 381.206 C 194.850 381.133,191.550 380.991,189.167 380.891 C 148.819 379.199,106.572 360.970,75.795 331.972 C -6.292 254.630,1.373 122.056,91.833 54.557 C 126.147 28.953,165.764 17.145,210.667 19.138 M68.000 57.763 C 68.000 57.815,67.212 58.603,66.250 59.513 L 64.500 61.167 66.154 59.417 C 67.691 57.791,68.000 57.514,68.000 57.763 M333.833 59.333 C 334.736 60.250,335.400 61.000,335.308 61.000 C 335.217 61.000,334.403 60.250,333.500 59.333 C 332.597 58.417,331.933 57.667,332.025 57.667 C 332.117 57.667,332.930 58.417,333.833 59.333 M67.667 60.167 C 66.857 60.992,66.120 61.667,66.028 61.667 C 65.936 61.667,66.524 60.992,67.333 60.167 C 68.143 59.342,68.880 58.667,68.972 58.667 C 69.064 58.667,68.476 59.342,67.667 60.167 M334.000 61.569 C 334.000 61.820,333.701 61.555,332.319 60.083 L 330.833 58.500 332.417 59.986 C 333.287 60.803,334.000 61.516,334.000 61.569 M61.000 64.763 C 61.000 64.815,60.212 65.603,59.250 66.513 L 57.500 68.167 59.154 66.417 C 60.691 64.791,61.000 64.514,61.000 64.763 M340.833 66.333 C 341.736 67.250,342.400 68.000,342.308 68.000 C 342.217 68.000,341.403 67.250,340.500 66.333 C 339.597 65.417,338.933 64.667,339.025 64.667 C 339.117 64.667,339.930 65.417,340.833 66.333 M61.333 66.432 C 61.333 66.487,60.696 67.124,59.917 67.849 L 58.500 69.167 59.818 67.750 C 61.043 66.433,61.333 66.180,61.333 66.432 M340.167 67.667 C 340.883 68.400,341.394 69.000,341.302 69.000 C 341.210 69.000,340.549 68.400,339.833 67.667 C 339.117 66.933,338.606 66.333,338.698 66.333 C 338.790 66.333,339.451 66.933,340.167 67.667 M7.563 190.917 C 7.479 191.237,7.411 190.975,7.411 190.333 C 7.411 189.692,7.479 189.429,7.563 189.750 C 7.647 190.071,7.647 190.596,7.563 190.917 M392.569 191.079 C 392.489 191.494,392.421 191.233,392.417 190.500 C 392.414 189.767,392.479 189.427,392.562 189.746 C 392.646 190.065,392.649 190.665,392.569 191.079 M392.569 210.079 C 392.489 210.494,392.421 210.233,392.417 209.500 C 392.414 208.767,392.479 208.427,392.562 208.746 C 392.646 209.065,392.649 209.665,392.569 210.079 M7.563 210.250 C 7.479 210.571,7.411 210.308,7.411 209.667 C 7.411 209.025,7.479 208.762,7.563 209.083 C 7.647 209.404,7.647 209.929,7.563 210.250 M61.667 333.903 C 61.667 334.153,61.367 333.888,59.986 332.417 L 58.500 330.833 60.083 332.319 C 60.954 333.137,61.667 333.849,61.667 333.903 M341.333 331.099 C 341.333 331.153,340.696 331.791,339.917 332.516 L 338.500 333.833 339.818 332.417 C 341.043 331.099,341.333 330.847,341.333 331.099 M342.333 332.096 C 342.333 332.149,341.546 332.936,340.583 333.846 L 338.833 335.500 340.487 333.750 C 342.025 332.124,342.333 331.847,342.333 332.096 M59.833 334.000 C 60.736 334.917,61.400 335.667,61.308 335.667 C 61.217 335.667,60.403 334.917,59.500 334.000 C 58.597 333.083,57.933 332.333,58.025 332.333 C 58.117 332.333,58.930 333.083,59.833 334.000 M66.167 340.333 C 67.255 341.433,68.071 342.333,67.979 342.333 C 67.887 342.333,66.922 341.433,65.833 340.333 C 64.745 339.233,63.929 338.333,64.021 338.333 C 64.113 338.333,65.078 339.233,66.167 340.333 M69.000 341.236 C 69.000 341.486,68.701 341.222,67.319 339.750 L 65.833 338.167 67.417 339.653 C 68.287 340.470,69.000 341.183,69.000 341.236 M332.667 339.833 C 331.857 340.658,331.120 341.333,331.028 341.333 C 330.936 341.333,331.524 340.658,332.333 339.833 C 333.143 339.008,333.880 338.333,333.972 338.333 C 334.064 338.333,333.476 339.008,332.667 339.833 M335.333 339.096 C 335.333 339.149,334.546 339.936,333.583 340.846 L 331.833 342.500 333.487 340.750 C 335.025 339.124,335.333 338.847,335.333 339.096 M201.583 394.245 C 200.713 394.314,199.287 394.314,198.417 394.245 C 197.546 394.176,198.258 394.120,200.000 394.120 C 201.742 394.120,202.454 394.176,201.583 394.245 " stroke="none" fill="#7c7c7c" fill-rule="evenodd"></path><path id="path4" d="M190.667 2.689 C 158.254 4.185,126.239 13.799,98.703 30.307 C -2.523 90.994,-28.466 225.020,42.692 319.667 C 107.220 405.495,231.654 422.994,318.209 358.414 C 411.424 288.864,424.553 153.643,346.470 67.333 C 306.856 23.546,249.993 -0.047,190.667 2.689 M207.988 3.010 C 314.381 7.759,397.155 93.956,397.155 200.000 C 397.155 317.409,295.124 408.883,178.541 395.996 C 69.302 383.920,-8.751 285.655,4.192 176.500 C 15.520 80.958,94.894 7.240,190.975 3.026 C 199.608 2.647,199.855 2.647,207.988 3.010 M198.261 5.913 C 199.230 5.980,200.730 5.980,201.595 5.911 C 202.459 5.843,201.667 5.788,199.833 5.788 C 198.000 5.789,197.293 5.845,198.261 5.913 M209.500 19.333 C 210.417 19.468,211.309 19.448,211.483 19.289 C 211.665 19.123,210.953 19.019,209.817 19.045 L 207.833 19.089 209.500 19.333 M214.417 19.563 C 214.737 19.647,215.262 19.647,215.583 19.563 C 215.904 19.479,215.642 19.411,215.000 19.411 C 214.358 19.411,214.096 19.479,214.417 19.563 M263.833 45.333 C 264.922 46.433,265.887 47.333,265.979 47.333 C 266.071 47.333,265.255 46.433,264.167 45.333 C 263.078 44.233,262.113 43.333,262.021 43.333 C 261.929 43.333,262.745 44.233,263.833 45.333 M66.154 59.417 L 64.500 61.167 66.250 59.513 C 67.876 57.975,68.153 57.667,67.904 57.667 C 67.851 57.667,67.064 58.454,66.154 59.417 M333.500 59.333 C 334.403 60.250,335.217 61.000,335.308 61.000 C 335.400 61.000,334.736 60.250,333.833 59.333 C 332.930 58.417,332.117 57.667,332.025 57.667 C 331.933 57.667,332.597 58.417,333.500 59.333 M67.333 60.167 C 66.524 60.992,65.936 61.667,66.028 61.667 C 66.120 61.667,66.857 60.992,67.667 60.167 C 68.476 59.342,69.064 58.667,68.972 58.667 C 68.880 58.667,68.143 59.342,67.333 60.167 M332.319 60.083 C 333.137 60.954,333.849 61.667,333.903 61.667 C 334.153 61.667,333.888 61.367,332.417 59.986 L 330.833 58.500 332.319 60.083 M59.154 66.417 L 57.500 68.167 59.250 66.513 C 60.876 64.975,61.153 64.667,60.904 64.667 C 60.851 64.667,60.064 65.454,59.154 66.417 M340.500 66.333 C 341.403 67.250,342.217 68.000,342.308 68.000 C 342.400 68.000,341.736 67.250,340.833 66.333 C 339.930 65.417,339.117 64.667,339.025 64.667 C 338.933 64.667,339.597 65.417,340.500 66.333 M59.818 67.750 L 58.500 69.167 59.917 67.849 C 60.696 67.124,61.333 66.487,61.333 66.432 C 61.333 66.180,61.043 66.433,59.818 67.750 M339.833 67.667 C 340.549 68.400,341.210 69.000,341.302 69.000 C 341.394 69.000,340.883 68.400,340.167 67.667 C 339.451 66.933,338.790 66.333,338.698 66.333 C 338.606 66.333,339.117 66.933,339.833 67.667 M323.986 68.083 C 325.367 69.555,325.667 69.820,325.667 69.569 C 325.667 69.516,324.954 68.803,324.083 67.986 L 322.500 66.500 323.986 68.083 M331.833 76.000 C 332.736 76.917,333.550 77.667,333.642 77.667 C 333.733 77.667,333.070 76.917,332.167 76.000 C 331.264 75.083,330.450 74.333,330.358 74.333 C 330.267 74.333,330.930 75.083,331.833 76.000 M380.411 185.000 C 380.411 185.642,380.479 185.904,380.563 185.583 C 380.647 185.262,380.647 184.737,380.563 184.417 C 380.479 184.096,380.411 184.358,380.411 185.000 M380.757 190.000 C 380.757 190.825,380.822 191.162,380.902 190.750 C 380.981 190.338,380.981 189.662,380.902 189.250 C 380.822 188.838,380.757 189.175,380.757 190.000 M7.411 190.333 C 7.411 190.975,7.479 191.237,7.563 190.917 C 7.647 190.596,7.647 190.071,7.563 189.750 C 7.479 189.429,7.411 189.692,7.411 190.333 M392.417 190.500 C 392.421 191.233,392.489 191.494,392.569 191.079 C 392.649 190.665,392.646 190.065,392.562 189.746 C 392.479 189.427,392.414 189.767,392.417 190.500 M381.116 200.000 C 381.116 201.558,381.174 202.196,381.244 201.417 C 381.314 200.637,381.314 199.362,381.244 198.583 C 381.174 197.804,381.116 198.442,381.116 200.000 M392.417 209.500 C 392.421 210.233,392.489 210.494,392.569 210.079 C 392.649 209.665,392.646 209.065,392.562 208.746 C 392.479 208.427,392.414 208.767,392.417 209.500 M7.411 209.667 C 7.411 210.308,7.479 210.571,7.563 210.250 C 7.647 209.929,7.647 209.404,7.563 209.083 C 7.479 208.762,7.411 209.025,7.411 209.667 M380.757 210.000 C 380.757 210.825,380.822 211.162,380.902 210.750 C 380.981 210.338,380.981 209.662,380.902 209.250 C 380.822 208.838,380.757 209.175,380.757 210.000 M380.411 215.000 C 380.411 215.642,380.479 215.904,380.563 215.583 C 380.647 215.262,380.647 214.737,380.563 214.417 C 380.479 214.096,380.411 214.358,380.411 215.000 M179.812 270.750 L 178.833 271.833 179.917 270.854 C 180.512 270.316,181.000 269.828,181.000 269.771 C 181.000 269.513,180.725 269.740,179.812 270.750 M109.452 290.500 C 109.451 292.150,109.507 292.867,109.577 292.093 C 109.647 291.320,109.648 289.970,109.579 289.093 C 109.510 288.217,109.453 288.850,109.452 290.500 M171.744 289.333 C 171.744 289.975,171.813 290.237,171.896 289.917 C 171.980 289.596,171.980 289.071,171.896 288.750 C 171.813 288.429,171.744 288.692,171.744 289.333 M228.077 289.333 C 228.077 289.975,228.146 290.237,228.230 289.917 C 228.314 289.596,228.314 289.071,228.230 288.750 C 228.146 288.429,228.077 288.692,228.077 289.333 M331.487 324.417 L 329.833 326.167 331.583 324.513 C 333.209 322.975,333.486 322.667,333.237 322.667 C 333.185 322.667,332.397 323.454,331.487 324.417 M324.154 331.750 L 322.500 333.500 324.250 331.846 C 325.876 330.309,326.153 330.000,325.904 330.000 C 325.851 330.000,325.064 330.787,324.154 331.750 M59.986 332.417 C 60.803 333.287,61.516 334.000,61.569 334.000 C 61.820 334.000,61.555 333.701,60.083 332.319 L 58.500 330.833 59.986 332.417 M339.818 332.417 L 338.500 333.833 339.917 332.516 C 341.234 331.290,341.487 331.000,341.234 331.000 C 341.180 331.000,340.542 331.637,339.818 332.417 M340.487 333.750 L 338.833 335.500 340.583 333.846 C 341.546 332.936,342.333 332.149,342.333 332.096 C 342.333 331.847,342.025 332.124,340.487 333.750 M59.500 334.000 C 60.403 334.917,61.217 335.667,61.308 335.667 C 61.400 335.667,60.736 334.917,59.833 334.000 C 58.930 333.083,58.117 332.333,58.025 332.333 C 57.933 332.333,58.597 333.083,59.500 334.000 M65.833 340.333 C 66.922 341.433,67.887 342.333,67.979 342.333 C 68.071 342.333,67.255 341.433,66.167 340.333 C 65.078 339.233,64.113 338.333,64.021 338.333 C 63.929 338.333,64.745 339.233,65.833 340.333 M67.319 339.750 C 68.137 340.621,68.849 341.333,68.903 341.333 C 69.153 341.333,68.888 341.034,67.417 339.653 L 65.833 338.167 67.319 339.750 M332.333 339.833 C 331.524 340.658,330.936 341.333,331.028 341.333 C 331.120 341.333,331.857 340.658,332.667 339.833 C 333.476 339.008,334.064 338.333,333.972 338.333 C 333.880 338.333,333.143 339.008,332.333 339.833 M333.487 340.750 L 331.833 342.500 333.583 340.846 C 334.546 339.936,335.333 339.149,335.333 339.096 C 335.333 338.847,335.025 339.124,333.487 340.750 M214.417 380.563 C 214.737 380.647,215.262 380.647,215.583 380.563 C 215.904 380.479,215.642 380.411,215.000 380.411 C 214.358 380.411,214.096 380.479,214.417 380.563 M209.250 380.902 C 209.662 380.981,210.338 380.981,210.750 380.902 C 211.162 380.822,210.825 380.757,210.000 380.757 C 209.175 380.757,208.838 380.822,209.250 380.902 M198.750 381.245 C 199.621 381.314,201.046 381.314,201.917 381.245 C 202.787 381.176,202.075 381.120,200.333 381.120 C 198.592 381.120,197.879 381.176,198.750 381.245 M198.417 394.245 C 199.287 394.314,200.713 394.314,201.583 394.245 C 202.454 394.176,201.742 394.120,200.000 394.120 C 198.258 394.120,197.546 394.176,198.417 394.245 " stroke="none" fill="#6d6d6d" fill-rule="evenodd"></path></g></svg>